Coordinates
version=1
nRows=13
nColumns=18
inDegrees=yes

Units are S.I. units (second, meters, Newtons, ...)
If the header above contains a line with 'inDegrees', this indicates whether rotational values are in degrees (yes) or radians (no).

endheader
time	ground_thorax_rot_x	ground_thorax_rot_y	ground_thorax_rot_z	ground_thorax_tx	ground_thorax_ty	ground_thorax_tz	clav_prot	clav_elev	scapula_abduction	scapula_elevation	scapula_upward_rot	scapula_winging	plane_elv	shoulder_elv	axial_rot	elbow_flexion	pro_sup
      1.70000000	    -11.55439720	    -17.30170163	    -40.45179360	      0.06299420	     -0.03434080	      0.04493564	    -24.77883646	     -5.37163440	    -24.12269568	     -3.64384613	      7.40774880	     31.76751697	    -45.36630718	     30.91673669	     22.26226653	      0.00156114	     63.92270238
      1.72000000	    -11.87879018	    -17.19648031	    -40.66092805	      0.06354094	     -0.03451803	      0.04433753	    -24.72365730	     -5.53119398	    -23.98196181	     -3.75473199	      7.39611860	     31.78558178	    -46.11494496	     31.05002113	     22.44415794	      0.00156114	     63.92270238
      1.74000000	    -12.01836831	    -17.10070431	    -40.77193988	      0.06391826	     -0.03474191	      0.04377929	    -24.74652435	     -5.47337569	    -24.05919958	     -3.70280669	      7.35822301	     31.79069232	    -46.41997311	     31.23010562	     22.41023204	      0.00156114	     63.92270238
      1.76000000	    -12.18766858	    -16.99165972	    -40.88963343	      0.06420266	     -0.03491172	      0.04324230	    -24.75750461	     -5.49571882	    -24.09257908	     -3.70620024	      7.31022492	     31.81025517	    -46.75715035	     31.37747625	     22.45389486	      0.00156114	     63.92270238
      1.78000000	    -12.31290086	    -16.91090131	    -40.97495088	      0.06429026	     -0.03515542	      0.04277093	    -24.75362249	     -5.41361872	    -24.15477718	     -3.62554494	      7.23870338	     31.81259525	    -46.83690001	     31.50281703	     22.37548010	      0.00156114	     63.92270238
      1.80000000	    -12.39953074	    -16.81322427	    -41.00990024	      0.06439436	     -0.03514766	      0.04228347	    -24.78368558	     -5.48089003	    -24.19421788	     -3.66642040	      7.20322214	     31.84242416	    -47.13635247	     31.65472562	     22.39852964	      0.00156114	     63.92270238
      1.82000000	    -12.46589907	    -16.86580339	    -41.18961756	      0.06420896	     -0.03548866	      0.04204182	    -24.73826511	     -5.36883873	    -24.20641409	     -3.55974330	      7.12518952	     31.82982486	    -46.69869325	     31.74942744	     22.21814743	      0.00156114	     63.92270238
      1.84000000	    -12.55689339	    -16.65608385	    -41.03929108	      0.06411180	     -0.03517806	      0.04153864	    -24.80172803	     -5.55833186	    -24.26780067	     -3.68297584	      7.05747726	     31.89962234	    -47.29133977	     31.83777759	     22.35465326	      0.00156114	     63.92270238
      1.86000000	    -12.57082712	    -16.70583034	    -41.16682180	      0.06367218	     -0.03542481	      0.04132403	    -24.74377550	     -5.48118578	    -24.24980992	     -3.59968419	      6.97405649	     31.89139471	    -46.76511203	     31.88331927	     22.15565981	      0.00156114	     63.92270238
      1.88000000	    -12.58664971	    -16.47727344	    -40.95441363	      0.06336989	     -0.03494027	      0.04083876	    -24.80589609	     -5.76100717	    -24.25723078	     -3.79890236	      6.94032788	     31.96972988	    -47.43518883	     31.86400864	     22.85123845	      0.00156114	     63.92270238
      1.90000000	    -12.55837681	    -16.54411882	    -41.01757959	      0.06269489	     -0.03505040	      0.04075198	    -24.73587720	     -5.72109114	    -24.21272498	     -3.73876028	      6.84430757	     31.96799306	    -46.80631287	     31.84320126	     22.61537310	      0.00156114	     63.92270238
      1.92000000	    -12.44822732	    -16.36555775	    -40.74306961	      0.06203383	     -0.03459342	      0.04038053	    -24.77948146	     -5.85440673	    -24.25900345	     -3.82287415	      6.78728873	     32.02015729	    -47.01222921	     31.82708984	     22.51322241	      0.00156114	     63.92270238
      1.94000000	    -12.30223873	    -16.29569470	    -40.56814752	      0.06130375	     -0.03418016	      0.04018401	    -24.80976779	     -6.01665943	    -24.27054171	     -3.92928234	      6.73618657	     32.07327327	    -46.88017398	     31.80666401	     22.42001081	      0.00156114	     63.92270238
